<svg width="66" height="66" viewBox="0 0 66 66" fill="none" xmlns="http://www.w3.org/2000/svg">
<path d="M53.3329 41.2686H12.6641C11.6156 41.2686 10.7656 42.1185 10.7656 43.167V63.5014C10.7656 64.5498 11.6156 65.3998 12.6641 65.3998H53.3327C54.3812 65.3998 55.2312 64.5498 55.2312 63.5014V43.167C55.2313 42.1185 54.3813 41.2686 53.3329 41.2686Z" fill="#FFE660"/>
<path d="M55.2328 63.5014V43.167C55.2328 42.1185 54.3828 41.2686 53.3344 41.2686H33V65.3998H53.3344C54.3828 65.3998 55.2328 64.5498 55.2328 63.5014Z" fill="#FFC54D"/>
<path d="M32.9987 32.8648C31.9505 32.8648 31.1008 32.0155 31.1003 30.9674C31.1003 30.9134 31.0777 25.5047 29.6252 20.2202C27.8518 13.7685 24.882 10.4971 20.7981 10.4971C17.149 10.4971 15.5156 12.6691 15.5156 14.8218C15.5156 17.7657 18.4414 20.9342 24.8649 20.9342C25.9134 20.9342 26.7633 21.7842 26.7633 22.8326C26.7633 23.881 25.9134 24.731 24.8649 24.731C16.5863 24.731 11.7188 20.1272 11.7188 14.8218C11.7188 10.7859 14.8374 6.7002 20.7981 6.7002C24.9382 6.7002 30.4688 8.88327 33.3051 19.283C34.879 25.0539 34.8971 30.7277 34.8971 30.9664C34.8971 32.0148 34.0471 32.8648 32.9987 32.8648Z" fill="#D1BF90"/>
<path d="M39.1016 24.7306C38.0531 24.7306 37.2031 23.8806 37.2031 22.8322C37.2031 21.7837 38.0531 20.9337 39.1016 20.9337C48.1817 20.9337 51.4849 16.2628 51.4849 12.8216C51.4849 9.33986 48.4665 6.42968 43.1685 6.42968C42.1201 6.42968 41.2701 5.57969 41.2701 4.53125C41.2701 3.48281 42.1201 2.63281 43.1685 2.63281C51.8103 2.63281 55.2818 8.3776 55.2818 12.8216C55.2818 19.17 49.3524 24.7306 39.1016 24.7306Z" fill="#D1BF90"/>
<path d="M35.0334 6.43002C34.5299 6.43002 34.0471 6.23005 33.6911 5.87391L31.6576 3.84043C30.9162 3.09903 30.9162 1.89706 31.6576 1.15566C32.3989 0.414259 33.601 0.414259 34.3424 1.15566L35.0334 1.84669L35.7243 1.15566C36.4657 0.414259 37.6677 0.414259 38.4091 1.15566C39.1505 1.89706 39.1505 3.09903 38.4091 3.84043L36.3757 5.87391C36.0198 6.23005 35.5369 6.43002 35.0334 6.43002Z" fill="#F04438"/>
<path d="M65.2568 32.2735C64.9629 31.5641 64.2708 31.1016 63.5029 31.1016H43.1685C42.6651 31.1016 42.1822 31.3017 41.8262 31.6577L33.0014 40.4825L24.1766 31.6577C23.8205 31.3017 23.3377 31.1016 22.8342 31.1016H2.49998C1.73212 31.1016 1.03983 31.5641 0.746075 32.2735C0.452324 32.9829 0.614703 33.7995 1.15766 34.3424L10.7687 43.9535H55.2342L64.8452 34.3424C65.3882 33.7995 65.5507 32.9829 65.2568 32.2735Z" fill="#FFC54D"/>
<path d="M64.8439 34.3424C65.3868 33.7995 65.5493 32.9829 65.2554 32.2735C64.9616 31.5641 64.2694 31.1016 63.5015 31.1016H43.1671C42.6637 31.1016 42.1808 31.3017 41.8248 31.6577L33 40.4826V43.9536H55.2328L64.8439 34.3424Z" fill="#F98E00"/>
</svg>
